<?xml version="1.0" encoding="utf-8"?>
<!-- Generator: Adobe Illustrator 16.0.0, SVG Export Plug-In . SVG Version: 6.00 Build 0)  -->
<!DOCTYPE svg PUBLIC "-//W3C//DTD SVG 1.1//EN" "http://www.w3.org/Graphics/SVG/1.1/DTD/svg11.dtd">
<svg version="1.1" id="Layer_1" xmlns="http://www.w3.org/2000/svg" xmlns:xlink="http://www.w3.org/1999/xlink" x="0px" y="0px"
	 width="432px" height="414px" viewBox="144.5 153.5 432 414" enable-background="new 144.5 153.5 432 414" xml:space="preserve">
<g>
	<g>
		<path fill="#191919" d="M160.551,360.496c0,0,0.026-1.22,0.076-3.585c0.026-1.183,0.057-2.651,0.094-4.396
			c0.031-0.872,0.012-1.816,0.09-2.823c0.071-1.007,0.149-2.082,0.231-3.224c0.082-1.143,0.169-2.351,0.261-3.625
			c0.103-1.272,0.153-2.616,0.356-4.01c0.354-2.792,0.694-5.847,1.147-9.136c0.286-1.636,0.582-3.333,0.89-5.09
			c0.153-0.879,0.309-1.772,0.468-2.681c0.151-0.909,0.315-1.832,0.544-2.757c0.416-1.859,0.845-3.775,1.287-5.749
			c0.223-0.986,0.42-1.995,0.672-3.004c0.272-1.005,0.549-2.023,0.828-3.056c0.563-2.065,1.143-4.184,1.737-6.358
			c0.697-2.144,1.412-4.341,2.143-6.59c0.686-2.268,1.584-4.516,2.462-6.831c0.896-2.307,1.727-4.702,2.814-7.046
			c1.045-2.361,2.069-4.792,3.194-7.234c1.18-2.418,2.381-4.882,3.605-7.391c1.281-2.481,2.695-4.949,4.076-7.494
			c0.675-1.282,1.435-2.528,2.214-3.777c0.77-1.255,1.548-2.521,2.331-3.796c6.408-10.11,14.034-20.412,23.175-30.348
			c4.536-5.001,9.559-9.781,14.799-14.585c1.279-1.24,2.688-2.34,4.052-3.514c1.377-1.16,2.761-2.327,4.153-3.501
			c1.419-1.14,2.894-2.227,4.351-3.354c1.475-1.104,2.916-2.278,4.443-3.343c12.117-8.686,25.753-16.44,40.709-22.697
			c1.846-0.844,3.77-1.509,5.672-2.261c1.914-0.723,3.823-1.495,5.769-2.187c1.963-0.644,3.932-1.292,5.911-1.942
			c0.99-0.325,1.983-0.65,2.979-0.976c1.003-0.298,2.017-0.56,3.03-0.843c2.03-0.556,4.066-1.113,6.111-1.673
			c2.052-0.548,4.144-0.943,6.229-1.424c1.045-0.23,2.092-0.46,3.142-0.691l1.576-0.347l1.593-0.27
			c2.129-0.359,4.264-0.718,6.406-1.079c2.123-0.403,4.355-0.618,6.573-0.881c2.212-0.248,4.475-0.528,6.678-0.746
			c2.113-0.142,4.233-0.285,6.36-0.428l3.193-0.215c-0.066-0.004,0.54-0.026,0.634-0.024l0.418-0.007l0.838-0.013l1.679-0.026
			c2.244-0.033,4.494-0.065,6.75-0.098c2.259-0.006,4.521,0.135,6.795,0.198c4.558,0.068,9.11,0.572,13.713,0.955
			c9.158,1.063,18.438,2.49,27.613,4.846c4.635,1.017,9.162,2.501,13.771,3.831c2.281,0.736,4.531,1.576,6.805,2.377l3.408,1.222
			l3.354,1.381c17.984,7.228,35.272,17.232,51.121,29.619c15.774,12.476,29.985,27.463,41.763,44.449
			c1.434,2.15,2.868,4.303,4.305,6.457c1.412,2.171,2.691,4.428,4.043,6.646c0.66,1.118,1.347,2.222,1.986,3.354l1.846,3.438
			l1.842,3.446c0.621,1.146,1.232,2.298,1.771,3.486c1.104,2.366,2.207,4.732,3.313,7.101c1.066,2.386,2,4.832,3.003,7.251
			c0.485,1.215,1.001,2.42,1.46,3.648l1.305,3.709l1.301,3.715c0.44,1.237,0.873,2.477,1.226,3.743
			c3.222,10.009,5.469,20.33,7.114,30.742l1.027,7.842c0.08,0.659,0.18,1.297,0.242,1.973l0.167,2.048l0.324,4.098l0.312,4.1
			c0.063,0.714,0.078,1.314,0.094,1.915l0.053,1.822l0.219,7.719c-0.041,2.635-0.135,5.271-0.208,7.905
			c-0.056,1.316-0.042,2.637-0.157,3.951l-0.312,3.942l-0.315,3.942c-0.097,1.316-0.209,2.628-0.401,3.934l-1.027,7.844
			c-1.671,10.405-3.858,20.742-7.089,30.752c-0.352,1.266-0.785,2.507-1.225,3.743l-1.303,3.716l-1.306,3.71
			c-0.459,1.228-0.976,2.433-1.461,3.648c-1.003,2.42-1.937,4.866-3.004,7.253c-1.103,2.369-2.205,4.738-3.308,7.104
			c-0.533,1.19-1.131,2.35-1.756,3.494l-1.844,3.446l-1.846,3.439c-0.641,1.131-1.326,2.235-1.988,3.354
			c-1.352,2.218-2.632,4.476-4.044,6.647c-1.437,2.154-2.872,4.308-4.308,6.458c-11.739,17.024-26.008,31.971-41.75,44.492
			c-15.857,12.39-33.155,22.394-51.149,29.621l-3.356,1.382l-3.41,1.222c-2.274,0.8-4.527,1.64-6.801,2.393
			c-4.613,1.33-9.144,2.813-13.781,3.829c-9.181,2.356-18.463,3.781-27.626,4.842c-4.614,0.383-9.117,0.884-13.827,0.96
			c-1.163,0.041-2.323,0.081-3.482,0.122l-1.734,0.061l-0.864,0.026l-0.811-0.014c-2.157-0.037-4.308-0.073-6.452-0.108
			c-1.153-0.022-2.306-0.044-3.454-0.066c-1.115-0.072-2.229-0.145-3.341-0.217c-2.219-0.147-4.431-0.293-6.636-0.439
			c-2.199-0.221-4.385-0.499-6.563-0.747c-2.178-0.262-4.348-0.47-6.49-0.876c-2.144-0.36-4.28-0.722-6.409-1.081l-1.593-0.27
			l-1.577-0.347c-1.05-0.231-2.097-0.464-3.143-0.693c-2.085-0.482-4.179-0.877-6.229-1.426c-2.046-0.562-4.084-1.118-6.115-1.675
			c-1.012-0.283-2.026-0.547-3.029-0.845c-0.996-0.328-1.989-0.652-2.98-0.978c-1.978-0.651-3.95-1.298-5.913-1.944
			c-1.947-0.693-3.855-1.465-5.77-2.188c-1.901-0.757-3.83-1.409-5.669-2.272c-14.959-6.263-28.598-14.021-40.714-22.712
			c-12.129-8.697-22.612-18.438-31.793-28.316c-9.146-9.935-16.76-20.248-23.168-30.357c-0.783-1.275-1.56-2.541-2.33-3.796
			c-0.779-1.25-1.539-2.496-2.215-3.778c-1.38-2.546-2.795-5.014-4.074-7.495c-1.224-2.51-2.426-4.974-3.605-7.392
			c-1.116-2.446-2.146-4.875-3.189-7.237c-1.088-2.345-1.917-4.739-2.813-7.047c-0.878-2.314-1.777-4.563-2.462-6.831
			c-0.732-2.25-1.446-4.447-2.143-6.591c-0.594-2.173-1.173-4.294-1.736-6.358c-0.279-1.033-0.557-2.051-0.828-3.056
			c-0.252-1.009-0.449-2.019-0.672-3.004c-0.44-1.976-0.869-3.893-1.285-5.75c-0.228-0.925-0.392-1.849-0.543-2.758
			c-0.159-0.909-0.315-1.803-0.468-2.682c-0.308-1.757-0.604-3.454-0.889-5.09c-0.454-3.289-0.795-6.344-1.148-9.136
			c-0.202-1.393-0.253-2.743-0.356-4.018c-0.092-1.279-0.179-2.49-0.262-3.635c-0.082-1.144-0.159-2.221-0.231-3.23
			c-0.077-1.01-0.058-1.943-0.089-2.813c-0.036-1.735-0.067-3.198-0.093-4.375c-0.05-2.353-0.075-3.567-0.075-3.567V360.496z
			 M162.446,360.483c0,0,0.033,1.214,0.096,3.568c0.032,1.176,0.071,2.639,0.118,4.374c0.036,0.866,0.02,1.812,0.104,2.804
			c0.077,0.996,0.16,2.058,0.248,3.185c0.599,8.998,2.089,22.328,6.658,38.629c0.584,2.032,1.186,4.119,1.8,6.26
			c0.718,2.108,1.452,4.269,2.204,6.481c0.705,2.229,1.625,4.438,2.521,6.711c0.916,2.266,1.765,4.617,2.87,6.916
			c4.037,9.361,9.275,19.112,15.755,28.947c6.48,9.829,14.263,19.721,23.476,29.188c9.217,9.452,19.823,18.539,31.896,26.56
			c12.068,8.011,25.527,15.03,40.138,20.541c1.8,0.758,3.687,1.303,5.544,1.952c1.868,0.617,3.73,1.282,5.625,1.868
			c1.909,0.539,3.826,1.08,5.751,1.623c0.962,0.271,1.926,0.544,2.892,0.816c0.974,0.246,1.958,0.455,2.938,0.685
			c1.964,0.45,3.935,0.901,5.914,1.355c1.981,0.441,4.001,0.731,6.01,1.108c1.006,0.178,2.016,0.356,3.026,0.535l1.517,0.27
			l1.531,0.191c2.043,0.256,4.093,0.513,6.15,0.772c2.053,0.303,4.133,0.411,6.214,0.572c2.082,0.147,4.17,0.327,6.267,0.45
			c2.101,0.049,4.208,0.1,6.322,0.149l3.176,0.076c0.991,0.002,2.116-0.05,3.17-0.07c2.142-0.058,4.29-0.115,6.445-0.173
			c2.148-0.083,4.264-0.311,6.408-0.457c4.278-0.236,8.569-0.901,12.887-1.436c8.591-1.364,17.248-3.056,25.755-5.625
			c4.3-1.123,8.48-2.699,12.734-4.108c2.099-0.782,4.175-1.642,6.271-2.46l3.142-1.246l3.084-1.4
			c16.535-7.315,32.259-17.171,46.512-29.117c1.755-1.524,3.513-3.053,5.273-4.582c1.738-1.552,3.387-3.209,5.09-4.813
			c0.84-0.813,1.699-1.608,2.527-2.436l2.422-2.548l2.424-2.551c0.812-0.849,1.627-1.694,2.379-2.599
			c1.535-1.779,3.074-3.561,4.613-5.343c1.524-1.797,2.928-3.696,4.399-5.542l2.178-2.797l2.052-2.895l2.053-2.897
			c0.688-0.963,1.381-1.926,2-2.938c1.275-1.998,2.554-3.998,3.832-6c1.257-2.016,2.384-4.112,3.584-6.167
			c0.584-1.035,1.197-2.057,1.762-3.105l1.624-3.184l1.625-3.186c0.55-1.06,1.089-2.122,1.56-3.222l2.941-6.533
			c0.949-2.192,1.768-4.442,2.658-6.662c0.431-1.118,0.892-2.224,1.297-3.35l1.146-3.405l1.146-3.405
			c0.389-1.135,0.771-2.271,1.076-3.432l1.955-6.927c0.629-2.316,1.098-4.674,1.656-7.009l0.799-3.514l0.629-3.551
			c0.394-2.37,0.893-4.725,1.201-7.11c1.393-9.522,1.961-19.148,2.084-28.775l-0.172-7.239c-0.046-1.209-0.021-2.442-0.125-3.631
			l-0.269-3.583l-0.267-3.583c-0.078-1.195-0.174-2.389-0.347-3.582l-0.897-7.16c-0.309-2.384-0.809-4.739-1.202-7.11l-0.628-3.55
			l-0.801-3.513c-0.558-2.336-1.025-4.694-1.655-7.01l-1.956-6.927c-0.305-1.161-0.686-2.297-1.076-3.431l-1.146-3.406l-1.146-3.405
			c-0.404-1.126-0.866-2.232-1.296-3.348c-0.892-2.221-1.71-4.471-2.659-6.664l-2.941-6.534c-0.471-1.097-1.01-2.161-1.56-3.22
			l-1.625-3.186l-1.624-3.184c-0.564-1.047-1.177-2.069-1.762-3.105c-1.2-2.055-2.327-4.151-3.583-6.167
			c-1.279-2.002-2.558-4.002-3.833-6c-0.62-1.012-1.311-1.975-1.999-2.939l-2.054-2.897l-2.051-2.895l-2.178-2.796
			c-1.473-1.846-2.875-3.746-4.4-5.542c-1.539-1.783-3.078-3.565-4.613-5.344c-0.751-0.905-1.567-1.75-2.379-2.599l-2.424-2.551
			l-2.422-2.548c-0.828-0.827-1.687-1.623-2.527-2.435c-1.702-1.603-3.352-3.26-5.09-4.813c-1.76-1.53-3.519-3.057-5.273-4.582
			c-14.254-11.947-29.979-21.802-46.514-29.118l-3.084-1.4l-3.141-1.247c-2.096-0.818-4.172-1.677-6.271-2.459
			c-4.254-1.408-8.434-2.986-12.734-4.109c-8.507-2.569-17.164-4.26-25.756-5.625c-4.319-0.534-8.602-1.199-12.904-1.436
			c-2.146-0.148-4.284-0.375-6.422-0.457c-2.14-0.057-4.272-0.114-6.399-0.171c-1.049-0.022-2.159-0.071-3.151-0.071l-3.198,0.076
			c-2.129,0.05-4.252,0.101-6.367,0.151c-2.097,0.124-4.171,0.304-6.247,0.451c-2.073,0.161-4.143,0.268-6.198,0.572
			c-2.058,0.258-4.108,0.516-6.151,0.772l-1.531,0.192l-1.517,0.269c-1.01,0.18-2.02,0.358-3.026,0.536
			c-2.009,0.376-4.028,0.667-6.01,1.109c-1.978,0.453-3.95,0.905-5.914,1.355c-0.98,0.23-1.965,0.439-2.938,0.685
			c-0.967,0.272-1.932,0.545-2.894,0.816c-1.924,0.543-3.841,1.084-5.75,1.623c-1.896,0.586-3.757,1.251-5.626,1.868
			c-1.855,0.651-3.743,1.196-5.544,1.953c-14.611,5.511-28.07,12.531-40.138,20.542c-12.072,8.02-22.678,17.107-31.896,26.559
			c-9.213,9.467-16.996,19.36-23.476,29.19c-6.479,9.835-11.718,19.586-15.755,28.947c-1.104,2.299-1.954,4.65-2.869,6.916
			c-0.897,2.273-1.816,4.482-2.521,6.711c-0.753,2.212-1.486,4.373-2.205,6.481c-0.614,2.14-1.215,4.227-1.8,6.26
			c-4.57,16.308-6.058,29.615-6.659,38.644c-0.087,1.129-0.17,2.193-0.247,3.191c-0.084,0.996-0.067,1.931-0.104,2.794
			c-0.046,1.729-0.085,3.183-0.116,4.354c-0.063,2.342-0.096,3.551-0.096,3.551L162.446,360.483z"/>
	</g>
</g>
</svg>
