<?xml version="1.0" encoding="utf-8"?>
<!-- Generator: Adobe Illustrator 16.0.0, SVG Export Plug-In . SVG Version: 6.00 Build 0)  -->
<!DOCTYPE svg PUBLIC "-//W3C//DTD SVG 1.1//EN" "http://www.w3.org/Graphics/SVG/1.1/DTD/svg11.dtd">
<svg version="1.1" id="Layer_1" xmlns="http://www.w3.org/2000/svg" xmlns:xlink="http://www.w3.org/1999/xlink" x="0px" y="0px"
	 width="434px" height="414px" viewBox="142.375 153.5 434 414" enable-background="new 142.375 153.5 434 414"
	 xml:space="preserve">
<g opacity="0.7">
	<path fill="#FFD700" d="M559.449,360.524c0,0-0.025,1.214-0.075,3.567c-0.025,1.177-0.057,2.639-0.093,4.375
		c-0.031,0.87-0.011,1.803-0.089,2.813c-0.072,1.01-0.149,2.087-0.231,3.231c-0.083,1.145-0.17,2.356-0.262,3.634
		c-0.103,1.275-0.154,2.625-0.356,4.018c-0.354,2.792-0.694,5.847-1.149,9.136c-0.285,1.636-0.581,3.333-0.888,5.09
		c-0.153,0.879-0.309,1.772-0.468,2.681c-0.151,0.91-0.315,1.833-0.543,2.758c-0.416,1.858-0.845,3.775-1.285,5.75
		c-0.223,0.986-0.42,1.995-0.672,3.004c-0.272,1.005-0.549,2.023-0.828,3.056c-0.564,2.064-1.143,4.185-1.736,6.358
		c-0.697,2.144-1.411,4.341-2.143,6.591c-0.685,2.268-1.584,4.517-2.462,6.831c-0.896,2.308-1.726,4.702-2.813,7.047
		c-1.043,2.362-2.074,4.791-3.19,7.237c-1.18,2.418-2.382,4.882-3.605,7.392c-1.28,2.481-2.695,4.949-4.075,7.495
		c-0.675,1.282-1.435,2.528-2.214,3.778c-0.771,1.255-1.547,2.521-2.33,3.796c-6.409,10.11-14.023,20.423-23.168,30.358
		c-9.181,9.879-19.665,19.619-31.793,28.316c-12.117,8.69-25.755,16.449-40.714,22.712c-1.839,0.863-3.768,1.516-5.669,2.272
		c-1.914,0.724-3.823,1.496-5.77,2.189c-1.963,0.646-3.935,1.293-5.913,1.944c-0.991,0.325-1.984,0.65-2.98,0.978
		c-1.003,0.298-2.018,0.561-3.03,0.844c-2.031,0.557-4.069,1.114-6.115,1.675c-2.051,0.549-4.144,0.944-6.229,1.426
		c-1.046,0.23-2.093,0.462-3.143,0.693l-1.577,0.347l-1.593,0.27c-2.129,0.359-4.266,0.72-6.409,1.081
		c-2.143,0.406-4.313,0.614-6.49,0.876c-2.178,0.248-4.364,0.526-6.563,0.747c-2.205,0.146-4.417,0.292-6.636,0.439
		c-1.111,0.072-2.225,0.145-3.34,0.217c-1.149,0.022-2.301,0.044-3.454,0.066c-2.145,0.036-4.295,0.072-6.453,0.109l-0.81,0.014
		l-0.864-0.027l-1.735-0.06c-1.159-0.041-2.319-0.081-3.482-0.122c-4.71-0.077-9.213-0.578-13.827-0.96
		c-9.163-1.061-18.446-2.486-27.627-4.842c-4.637-1.016-9.167-2.499-13.78-3.829c-2.274-0.753-4.527-1.593-6.802-2.393l-3.41-1.222
		l-3.356-1.381c-17.994-7.228-35.292-17.232-51.15-29.622c-15.741-12.521-30.01-27.467-41.75-44.492
		c-1.435-2.15-2.87-4.303-4.307-6.458c-1.412-2.172-2.693-4.429-4.044-6.647c-0.662-1.118-1.348-2.223-1.988-3.354l-1.846-3.439
		l-1.844-3.446c-0.625-1.145-1.223-2.304-1.756-3.495c-1.102-2.366-2.204-4.735-3.307-7.104c-1.067-2.387-2.001-4.833-3.004-7.253
		c-0.486-1.216-1.002-2.421-1.461-3.648l-1.306-3.71l-1.302-3.716c-0.44-1.237-0.873-2.478-1.225-3.743
		c-3.23-10.01-5.418-20.347-7.089-30.753l-1.027-7.843c-0.192-1.306-0.305-2.618-0.401-3.934l-0.316-3.942l-0.311-3.943
		c-0.116-1.314-0.102-2.634-0.158-3.95c-0.073-2.635-0.167-5.271-0.208-7.906l0.219-7.719l0.053-1.822
		c0.015-0.601,0.03-1.201,0.093-1.915l0.312-4.1l0.324-4.098l0.167-2.048c0.063-0.676,0.163-1.314,0.243-1.973l1.026-7.842
		c1.646-10.412,3.894-20.733,7.115-30.742c0.353-1.266,0.785-2.506,1.225-3.743l1.301-3.715l1.305-3.709
		c0.459-1.228,0.975-2.433,1.46-3.648c1.003-2.419,1.937-4.865,3.003-7.251c1.105-2.369,2.209-4.735,3.312-7.101
		c0.54-1.188,1.151-2.34,1.772-3.486l1.842-3.446l1.845-3.438c0.64-1.132,1.326-2.236,1.987-3.354
		c1.351-2.218,2.631-4.475,4.042-6.646c1.437-2.154,2.872-4.307,4.305-6.457c11.778-16.986,25.989-31.973,41.763-44.449
		c15.848-12.387,33.137-22.391,51.121-29.619l3.354-1.381l3.409-1.222c2.273-0.801,4.524-1.641,6.804-2.377
		c4.61-1.33,9.137-2.814,13.772-3.831c9.176-2.356,18.455-3.783,27.613-4.846c4.603-0.383,9.156-0.887,13.713-0.955
		c2.274-0.063,4.536-0.204,6.795-0.198c2.256,0.033,4.506,0.065,6.75,0.098l1.679,0.026l0.838,0.013l0.418,0.007
		c0.093-0.002,0.7,0.02,0.633,0.024l3.194,0.215c2.127,0.143,4.247,0.286,6.36,0.428c2.203,0.218,4.466,0.498,6.678,0.746
		c2.218,0.263,4.45,0.478,6.573,0.881c2.143,0.361,4.278,0.72,6.406,1.079l1.593,0.27l1.576,0.347
		c1.05,0.231,2.097,0.461,3.142,0.691c2.086,0.481,4.178,0.876,6.229,1.424c2.045,0.56,4.082,1.117,6.112,1.673
		c1.013,0.283,2.027,0.545,3.03,0.843c0.995,0.326,1.988,0.651,2.979,0.976c1.979,0.65,3.948,1.298,5.911,1.942
		c1.945,0.692,3.854,1.464,5.768,2.187c1.903,0.752,3.826,1.417,5.672,2.261c14.956,6.257,28.592,14.011,40.709,22.697
		c1.527,1.065,2.969,2.239,4.443,3.343c1.458,1.127,2.932,2.214,4.351,3.354c1.393,1.174,2.776,2.341,4.153,3.501
		c1.364,1.174,2.773,2.274,4.052,3.514c5.24,4.804,10.263,9.584,14.799,14.585c9.141,9.936,16.767,20.238,23.175,30.348
		c0.783,1.275,1.561,2.541,2.331,3.796c0.779,1.249,1.539,2.495,2.214,3.777c1.381,2.545,2.795,5.013,4.076,7.494
		c1.224,2.509,2.426,4.973,3.605,7.391c1.125,2.442,2.15,4.873,3.195,7.234c1.088,2.344,1.918,4.739,2.814,7.046
		c0.878,2.315,1.777,4.563,2.462,6.831c0.731,2.249,1.445,4.446,2.143,6.59c0.594,2.174,1.173,4.293,1.737,6.358
		c0.279,1.033,0.556,2.051,0.828,3.056c0.252,1.009,0.449,2.018,0.672,3.004c0.442,1.974,0.871,3.89,1.287,5.749
		c0.229,0.925,0.393,1.848,0.544,2.757c0.159,0.909,0.314,1.802,0.468,2.681c0.307,1.757,0.603,3.454,0.889,5.09
		c0.454,3.289,0.794,6.344,1.148,9.136c0.203,1.394,0.254,2.738,0.356,4.01c0.092,1.274,0.179,2.482,0.261,3.625
		c0.082,1.142,0.16,2.217,0.232,3.224c0.078,1.007,0.058,1.951,0.089,2.823c0.037,1.745,0.068,3.213,0.094,4.396
		c0.05,2.365,0.076,3.585,0.076,3.585L559.449,360.524z M557.55,360.5c0,0-0.032-1.209-0.096-3.551
		c-0.031-1.171-0.07-2.625-0.116-4.354c-0.036-0.863-0.02-1.798-0.104-2.794c-0.077-0.998-0.16-2.062-0.247-3.191
		c-0.601-9.029-2.089-22.336-6.659-38.644c-0.585-2.033-1.185-4.12-1.8-6.26c-0.718-2.108-1.452-4.269-2.205-6.481
		c-0.705-2.229-1.624-4.438-2.521-6.711c-0.915-2.266-1.765-4.617-2.869-6.916c-4.037-9.361-9.276-19.112-15.755-28.947
		c-6.48-9.83-14.263-19.723-23.476-29.19c-9.217-9.452-19.823-18.539-31.895-26.559c-12.068-8.011-25.527-15.031-40.138-20.542
		c-1.801-0.757-3.688-1.302-5.544-1.953c-1.869-0.617-3.73-1.282-5.626-1.868c-1.909-0.539-3.826-1.08-5.75-1.623
		c-0.962-0.271-1.927-0.544-2.893-0.816c-0.973-0.246-1.957-0.455-2.938-0.685c-1.964-0.45-3.936-0.902-5.914-1.355
		c-1.981-0.442-4.001-0.733-6.01-1.109c-1.007-0.178-2.016-0.356-3.026-0.536l-1.517-0.269l-1.531-0.192
		c-2.043-0.256-4.094-0.514-6.151-0.772c-2.056-0.304-4.125-0.411-6.199-0.572c-2.076-0.147-4.15-0.327-6.247-0.451
		c-2.115-0.05-4.238-0.101-6.367-0.151l-3.198-0.076c-0.992,0-2.103,0.049-3.151,0.071c-2.127,0.057-4.26,0.114-6.4,0.171
		c-2.138,0.082-4.275,0.309-6.422,0.457c-4.302,0.237-8.585,0.902-12.904,1.436c-8.592,1.365-17.249,3.056-25.756,5.625
		c-4.3,1.123-8.481,2.701-12.734,4.109c-2.1,0.782-4.176,1.641-6.272,2.459l-3.141,1.247l-3.084,1.4
		c-16.535,7.316-32.259,17.171-46.513,29.118c-1.755,1.525-3.513,3.052-5.273,4.582c-1.739,1.553-3.388,3.21-5.09,4.813
		c-0.841,0.812-1.7,1.608-2.528,2.435l-2.421,2.548l-2.425,2.551c-0.811,0.849-1.627,1.694-2.378,2.599
		c-1.536,1.779-3.074,3.561-4.614,5.344c-1.525,1.796-2.927,3.696-4.4,5.542l-2.177,2.796l-2.051,2.895l-2.054,2.897
		c-0.688,0.964-1.379,1.927-1.999,2.939c-1.276,1.998-2.554,3.998-3.833,6c-1.256,2.016-2.383,4.112-3.583,6.167
		c-0.585,1.036-1.197,2.058-1.762,3.105l-1.624,3.184l-1.625,3.186c-0.55,1.059-1.089,2.123-1.559,3.22l-2.942,6.534
		c-0.949,2.193-1.768,4.443-2.659,6.664c-0.43,1.116-0.892,2.222-1.296,3.348l-1.146,3.405l-1.147,3.406
		c-0.39,1.134-0.772,2.27-1.076,3.431l-1.956,6.927c-0.63,2.316-1.098,4.674-1.655,7.01l-0.801,3.513l-0.628,3.55
		c-0.394,2.371-0.894,4.726-1.202,7.11l-0.898,7.16c-0.173,1.193-0.268,2.387-0.346,3.582l-0.267,3.583l-0.269,3.583
		c-0.103,1.189-0.079,2.422-0.124,3.631l-0.172,7.239c0.122,9.627,0.691,19.253,2.083,28.776c0.309,2.385,0.808,4.74,1.202,7.11
		l0.628,3.55l0.8,3.514c0.558,2.335,1.026,4.693,1.656,7.009l1.955,6.927c0.304,1.161,0.687,2.297,1.076,3.431l1.147,3.406
		l1.146,3.405c0.405,1.126,0.866,2.231,1.296,3.349c0.892,2.22,1.71,4.47,2.659,6.663l2.942,6.533
		c0.47,1.099,1.009,2.162,1.559,3.221l1.625,3.186l1.624,3.184c0.565,1.048,1.177,2.07,1.762,3.105
		c1.2,2.055,2.327,4.151,3.583,6.167c1.279,2.002,2.557,4.002,3.833,6c0.619,1.012,1.311,1.975,1.999,2.938l2.054,2.897l2.051,2.895
		l2.178,2.796c1.472,1.846,2.875,3.746,4.399,5.542c1.54,1.783,3.078,3.564,4.614,5.343c0.751,0.905,1.567,1.75,2.378,2.599
		l2.425,2.551l2.421,2.548c0.829,0.827,1.687,1.623,2.528,2.435c1.702,1.604,3.351,3.261,5.09,4.813
		c1.76,1.529,3.518,3.057,5.273,4.582c14.253,11.946,29.977,21.801,46.512,29.117l3.084,1.4l3.141,1.246
		c2.096,0.819,4.172,1.678,6.271,2.46c4.254,1.409,8.434,2.986,12.734,4.109c8.507,2.569,17.164,4.26,25.755,5.625
		c4.317,0.534,8.608,1.199,12.887,1.435c2.144,0.147,4.259,0.374,6.408,0.457c2.155,0.058,4.304,0.115,6.445,0.173
		c1.054,0.021,2.179,0.072,3.17,0.07l3.176-0.076c2.114-0.05,4.222-0.1,6.322-0.149c2.097-0.123,4.185-0.303,6.267-0.45
		c2.081-0.162,4.161-0.27,6.214-0.573c2.057-0.259,4.107-0.516,6.15-0.772l1.531-0.192l1.517-0.269
		c1.011-0.179,2.02-0.357,3.026-0.535c2.009-0.377,4.028-0.667,6.01-1.109c1.979-0.454,3.95-0.905,5.914-1.355
		c0.98-0.23,1.965-0.439,2.938-0.685c0.966-0.272,1.93-0.545,2.892-0.816c1.925-0.543,3.842-1.084,5.751-1.623
		c1.895-0.586,3.757-1.251,5.625-1.868c1.857-0.65,3.744-1.195,5.544-1.952c14.61-5.511,28.069-12.531,40.138-20.542
		c12.072-8.02,22.678-17.107,31.895-26.559c9.213-9.468,16.995-19.359,23.476-29.189c6.479-9.835,11.718-19.586,15.755-28.947
		c1.105-2.299,1.954-4.65,2.87-6.916c0.896-2.272,1.816-4.481,2.521-6.711c0.752-2.213,1.487-4.373,2.204-6.481
		c0.615-2.141,1.216-4.228,1.8-6.26c4.57-16.301,6.06-29.631,6.658-38.629c0.088-1.127,0.171-2.188,0.248-3.184
		c0.084-0.993,0.068-1.938,0.104-2.804c0.047-1.736,0.086-3.198,0.118-4.374c0.063-2.354,0.096-3.568,0.096-3.568L557.55,360.5z"/>
</g>
</svg>
